<svg width="465" height="501" viewBox="0 0 465 501" fill="none" xmlns="http://www.w3.org/2000/svg">
<path d="M232.5 250.5C211.187 250.5 192.943 242.324 177.766 225.972C162.589 209.62 155 189.963 155 167C155 144.037 162.589 124.38 177.766 108.028C192.943 91.676 211.187 83.5 232.5 83.5C253.813 83.5 272.057 91.676 287.234 108.028C302.411 124.38 310 144.037 310 167C310 189.963 302.411 209.62 287.234 225.972C272.057 242.324 253.813 250.5 232.5 250.5ZM77.5 417.5V359.05C77.5 347.221 80.3255 336.348 85.9766 326.433C91.6276 316.517 99.1354 308.95 108.5 303.731C128.521 292.946 148.865 284.857 169.531 279.464C190.198 274.071 211.187 271.375 232.5 271.375C253.813 271.375 274.802 274.071 295.469 279.464C316.135 284.857 336.479 292.946 356.5 303.731C365.865 308.95 373.372 316.517 379.023 326.433C384.674 336.348 387.5 347.221 387.5 359.05V417.5H77.5ZM116.25 375.75H348.75V359.05C348.75 355.223 347.862 351.744 346.086 348.612C344.31 345.481 341.969 343.046 339.062 341.306C321.625 331.913 304.026 324.867 286.266 320.17C268.505 315.473 250.583 313.125 232.5 313.125C214.417 313.125 196.495 315.473 178.734 320.17C160.974 324.867 143.375 331.913 125.938 341.306C123.031 343.046 120.69 345.481 118.914 348.612C117.138 351.744 116.25 355.223 116.25 359.05V375.75ZM232.5 208.75C243.156 208.75 252.279 204.662 259.867 196.486C267.456 188.31 271.25 178.481 271.25 167C271.25 155.519 267.456 145.69 259.867 137.514C252.279 129.338 243.156 125.25 232.5 125.25C221.844 125.25 212.721 129.338 205.133 137.514C197.544 145.69 193.75 155.519 193.75 167C193.75 178.481 197.544 188.31 205.133 196.486C212.721 204.662 221.844 208.75 232.5 208.75Z" fill="#1D1B20" style="fill:#1D1B20;fill:color(display-p3 0.1137 0.1059 0.1255);fill-opacity:1;"/>
</svg>
